<svg width="133" height="53" viewBox="0 0 133 53" fill="none" xmlns="http://www.w3.org/2000/svg">
<path d="M67.3833 34.3956C67.3825 34.5107 67.3584 34.6244 67.3124 34.7299C67.2663 34.8354 67.1992 34.9305 67.1152 35.0094C67.0373 35.0892 66.9441 35.1526 66.8412 35.1958C66.7383 35.2391 66.6278 35.2613 66.5162 35.2612C66.4019 35.2634 66.2883 35.2423 66.1826 35.1989C66.0768 35.1556 65.9811 35.0911 65.9013 35.0094C65.8194 34.9297 65.7548 34.8342 65.7114 34.7286C65.668 34.623 65.6468 34.5097 65.6491 34.3956V24.2757C65.6229 23.353 65.795 22.4353 66.1536 21.5844C66.4771 20.8677 66.9377 20.2208 67.5094 19.6801C68.0479 19.1785 68.6875 18.7975 69.3855 18.5626C70.765 18.0597 72.2783 18.0597 73.6579 18.5626C74.3606 18.7972 75.0054 19.1781 75.5497 19.6801C76.1292 20.2078 76.5911 20.8513 76.9055 21.5687C77.2565 22.4163 77.4283 23.3272 77.41 24.2442V34.3956C77.4107 34.5673 77.3602 34.7353 77.265 34.8783C77.1697 35.0213 77.0341 35.1328 76.8752 35.1986C76.7163 35.2644 76.5415 35.2815 76.3728 35.2478C76.2042 35.2141 76.0493 35.1311 75.9281 35.0094C75.8462 34.9297 75.7816 34.8342 75.7382 34.7286C75.6948 34.623 75.6736 34.5097 75.6758 34.3956V24.2915C75.6861 23.6197 75.5684 22.9521 75.329 22.3241C75.1185 21.8123 74.8015 21.3509 74.3988 20.9706C74.0135 20.6122 73.5569 20.3387 73.0588 20.168C72.5498 20.0018 72.0178 19.9168 71.4822 19.9162C70.9467 19.9158 70.4144 20.0008 69.9057 20.168C69.4412 20.3502 69.0178 20.6231 68.6602 20.9706C68.2478 21.3425 67.9292 21.8062 67.7301 22.3241C67.4845 22.9394 67.3665 23.5979 67.3833 24.26V34.3956Z" fill="#D8202B"/>
<path d="M99.2301 19.3968C99.2046 19.2882 99.2046 19.175 99.2301 19.0663C99.2258 18.9534 99.2445 18.8407 99.2852 18.7352C99.3258 18.6297 99.3875 18.5335 99.4666 18.4525C99.5399 18.3669 99.6323 18.2996 99.7363 18.2559C99.8403 18.2122 99.953 18.1933 100.066 18.2007C100.237 18.1961 100.407 18.2397 100.554 18.3266C100.7 18.4197 100.811 18.558 100.87 18.7201L106.498 32.1765L112.221 18.7201C112.278 18.5586 112.385 18.4196 112.527 18.3233C112.669 18.2271 112.838 18.1786 113.009 18.185C113.129 18.18 113.248 18.2031 113.358 18.2523C113.467 18.3014 113.564 18.3754 113.64 18.4683C113.789 18.626 113.873 18.8338 113.876 19.0506C113.9 19.1648 113.9 19.2827 113.876 19.3968L107.365 34.7261C107.305 34.8889 107.195 35.0284 107.05 35.1245C106.906 35.2207 106.734 35.2686 106.561 35.2613C106.389 35.2702 106.219 35.2228 106.077 35.1261C105.934 35.0295 105.828 34.889 105.773 34.7261L99.2301 19.3968Z" fill="#D8202B"/>
<path d="M89.1555 34.1123C90.588 34.1154 91.9892 33.694 93.1817 32.9014C94.3741 32.1088 95.304 30.9808 95.8537 29.6601C96.4033 28.3395 96.5479 26.8857 96.2692 25.4829C95.9905 24.0801 95.301 22.7915 94.288 21.7802C93.2751 20.769 91.9843 20.0807 90.5791 19.8024C89.1739 19.5242 87.7176 19.6686 86.3947 20.2173C85.0718 20.766 83.9419 21.6944 83.1479 22.8848C82.354 24.0751 81.9318 25.474 81.9349 26.9041C81.9349 28.8158 82.6957 30.6493 84.0498 32.0011C85.4039 33.3529 87.2405 34.1123 89.1555 34.1123ZM80.2481 26.9041C80.2449 25.1447 80.7647 23.4239 81.7416 21.9595C82.7184 20.4951 84.1085 19.353 85.7358 18.6775C87.3632 18.0021 89.1546 17.8237 90.8835 18.165C92.6124 18.5064 94.2011 19.352 95.4484 20.595C96.6957 21.838 97.5456 23.4224 97.8906 25.1478C98.2355 26.8731 98.0601 28.6619 97.3863 30.2876C96.7126 31.9134 95.5709 33.3031 94.1058 34.2809C92.6406 35.2587 90.9179 35.7806 89.1555 35.7806C86.7958 35.7806 84.5326 34.8459 82.8625 33.1817C81.1925 31.5175 80.2522 29.2597 80.2481 26.9041Z" fill="#D8202B"/>
<path d="M123.839 34.1123C125.271 34.1154 126.673 33.694 127.865 32.9014C129.058 32.1088 129.987 30.9808 130.537 29.6601C131.087 28.3395 131.231 26.8857 130.953 25.4829C130.674 24.0801 129.984 22.7915 128.971 21.7802C127.959 20.769 126.668 20.0807 125.263 19.8024C123.857 19.5242 122.401 19.6686 121.078 20.2173C119.755 20.766 118.625 21.6944 117.831 22.8847C117.037 24.0751 116.615 25.474 116.618 26.9041C116.618 28.8158 117.379 30.6493 118.733 32.0011C120.087 33.3529 121.924 34.1123 123.839 34.1123ZM114.947 26.9041C114.944 25.144 115.464 23.4226 116.442 21.9579C117.419 20.4932 118.81 19.351 120.439 18.676C122.067 18.001 123.859 17.8236 125.589 18.1662C127.318 18.5088 128.906 19.356 130.153 20.6006C131.4 21.8451 132.248 23.431 132.592 25.1574C132.935 26.8838 132.757 28.673 132.081 30.2985C131.405 31.924 130.261 33.3126 128.794 34.2885C127.326 35.2644 125.602 35.7837 123.839 35.7806C121.481 35.7806 119.219 34.8454 117.552 33.1807C115.884 31.516 114.947 29.2583 114.947 26.9041Z" fill="#D8202B"/>
<path d="M24.4233 20.9707C24.4217 17.6014 23.5357 14.2913 21.8535 11.3702C21.2444 10.2607 20.2346 9.42466 19.0297 9.0323C17.8248 8.63994 16.5154 8.72077 15.3681 9.25834C14.2208 9.79591 13.3219 10.7498 12.8543 11.9258C12.3868 13.1018 12.3858 14.4115 12.8515 15.5882C13.4356 16.9951 13.7357 18.5034 13.7344 20.0264C13.74 21.9551 13.2591 23.8541 12.3361 25.5484C11.4131 27.2427 10.0777 28.6778 8.45302 29.7213C7.41973 30.2057 6.58513 31.0306 6.08971 32.0573C5.5943 33.084 5.46831 34.2497 5.73297 35.3583C5.99762 36.4668 6.63675 37.4505 7.54278 38.1437C8.4488 38.837 9.56641 39.1974 10.7075 39.1644C11.4216 39.1699 12.1276 39.0139 12.7727 38.708C16.244 37.2192 19.1996 34.7434 21.2714 31.5894C23.3431 28.4353 24.4392 24.7424 24.4233 20.9707Z" fill="#575756"/>
<path d="M19.7887 29.7999C16.5779 28.7495 13.1461 28.5649 9.8408 29.2648C8.73708 29.4373 7.72384 29.9762 6.96481 30.7945C6.20579 31.6128 5.74533 32.6627 5.65784 33.7745C5.57034 34.8864 5.86093 35.9952 6.48264 36.9218C7.10434 37.8484 8.02085 38.5386 9.08406 38.881C9.72859 39.0938 10.4108 39.1689 11.0863 39.1014C12.6046 38.9849 14.1311 39.1667 15.5794 39.6365C17.4327 40.2306 19.1049 41.2844 20.4394 42.6992C21.7738 44.1139 22.727 45.8435 23.2098 47.7261C23.3825 48.8279 23.9224 49.8394 24.7421 50.5972C25.5618 51.3549 26.6135 51.8146 27.7272 51.9019C28.8409 51.9893 29.9516 51.6992 30.8798 51.0785C31.808 50.4579 32.4994 49.5429 32.8424 48.4815C33.0705 47.8033 33.1458 47.0832 33.0631 46.3726C32.7188 42.6161 31.2774 39.0433 28.9176 36.0972C26.5579 33.1511 23.3837 30.9615 19.7887 29.7999Z" fill="#878787"/>
<path d="M26.8346 36.898C24.8457 39.6141 23.6111 42.8066 23.2558 46.1522C23.076 47.256 23.2752 48.388 23.8211 49.3644C24.367 50.3408 25.2276 51.1043 26.263 51.5309C27.2984 51.9575 28.4479 52.0221 29.5247 51.7143C30.6016 51.4064 31.5425 50.7441 32.1948 49.8351C32.5914 49.2896 32.8706 48.6679 33.0146 48.0094C33.6509 45.3821 35.1876 43.0598 37.3585 41.4445C39.5294 39.8291 42.1978 39.0225 44.9016 39.1644C46.1477 39.2831 47.3928 38.9276 48.3876 38.1691C49.3825 37.4106 50.0536 36.305 50.2669 35.0736C50.4801 33.8422 50.2196 32.5758 49.5376 31.528C48.8555 30.4801 47.8022 29.728 46.5885 29.4222C42.9149 28.603 39.0816 28.8743 35.5605 30.2026C32.0394 31.5309 28.9843 33.8582 26.7715 36.898" fill="#B2B2B2"/>
<path d="M35.7432 32.4125C37.7135 35.1576 40.3796 37.3303 43.4682 38.7079C44.6107 39.2219 45.9056 39.2856 47.0933 38.8864C48.2809 38.4872 49.2734 37.6545 49.8718 36.5553C50.4702 35.4562 50.6302 34.1718 50.3197 32.9598C50.0093 31.7478 49.2513 30.6977 48.1978 30.0202C45.888 28.607 44.1489 26.4286 43.2844 23.8654C42.4199 21.3023 42.485 18.5174 43.4682 15.9972C43.981 15.002 44.1425 13.8632 43.9267 12.765C43.7108 11.6668 43.1303 10.6733 42.2788 9.94531C41.4274 9.21727 40.3549 8.79721 39.2347 8.75302C38.1145 8.70884 37.0121 9.04313 36.1058 9.70184C35.5271 10.1163 35.0479 10.6538 34.7027 11.2757C32.7833 14.5081 31.8545 18.2311 32.031 21.9847C32.2075 25.7383 33.4816 29.358 35.6959 32.3968" fill="#DADADA"/>
<path d="M34.2127 22.5446C37.4261 21.5044 40.3082 19.637 42.5683 17.1305C43.3578 16.3421 43.8581 15.3111 43.9884 14.204C44.1187 13.0968 43.8715 11.9781 43.2865 11.0285C42.7016 10.0789 41.8131 9.35383 40.7646 8.97035C39.716 8.58688 38.5686 8.56739 37.5076 8.91502C36.8668 9.12149 36.2761 9.4592 35.7735 9.90655C34.6128 10.8942 33.268 11.643 31.8164 12.1099C29.9806 12.7085 28.0234 12.8363 26.1251 12.4815C24.2269 12.1267 22.4486 11.3007 20.9541 10.0797C20.0405 9.13006 18.7864 8.58165 17.4678 8.55509C16.1491 8.52853 14.874 9.02598 13.9227 9.93803C12.9715 10.8501 12.4222 12.102 12.3955 13.4184C12.3689 14.7348 12.8672 16.0078 13.7808 16.9574C16.2746 19.7886 19.5457 21.8271 23.1887 22.8202C26.8318 23.8133 30.6867 23.7175 34.2758 22.5446" fill="#D8202B"/>
<path d="M0.869767 20.9706C0.854123 19.9869 1.13203 19.0208 1.66811 18.1952C2.20419 17.3697 2.97421 16.722 3.88015 16.3347C4.78609 15.9474 5.78699 15.8379 6.75545 16.0202C7.72391 16.2025 8.61613 16.6684 9.31856 17.3585C10.021 18.0486 10.5018 18.9317 10.6999 19.8955C10.898 20.8592 10.8044 21.8601 10.431 22.7705C10.0575 23.681 9.42115 24.46 8.60286 25.0083C7.78457 25.5566 6.82137 25.8495 5.83584 25.8496C4.5323 25.8498 3.28096 25.3382 2.35187 24.4255C1.42279 23.5127 0.890458 22.2718 0.869767 20.9706Z" fill="#575756"/>
<path d="M23.336 5.46824C23.3328 4.48705 23.6214 3.527 24.1652 2.70966C24.709 1.89231 25.4835 1.25443 26.3907 0.876785C27.2978 0.499139 28.2968 0.398713 29.2612 0.588224C30.2255 0.777734 31.1119 1.24866 31.808 1.94136C32.5041 2.63407 32.9786 3.5174 33.1715 4.47951C33.3644 5.44163 33.267 6.43924 32.8916 7.34605C32.5162 8.25285 31.8797 9.02806 31.0627 9.57351C30.2457 10.119 29.2849 10.4101 28.302 10.4101C26.9877 10.4101 25.7269 9.88998 24.7961 8.96364C23.8652 8.03731 23.3401 6.78036 23.336 5.46824Z" fill="#D8202B"/>
<path d="M46.0996 20.9707C46.0965 19.9895 46.3851 19.0294 46.9289 18.2121C47.4727 17.3948 48.2472 16.7569 49.1543 16.3792C50.0615 16.0016 51.0605 15.9012 52.0248 16.0907C52.9892 16.2802 53.8755 16.7511 54.5716 17.4438C55.2677 18.1365 55.7423 19.0198 55.9352 19.982C56.1281 20.9441 56.0307 21.9417 55.6553 22.8485C55.2798 23.7553 54.6433 24.5305 53.8263 25.076C53.0093 25.6214 52.0486 25.9126 51.0657 25.9126C49.7514 25.9126 48.4906 25.3924 47.5597 24.4661C46.6289 23.5398 46.1038 22.2828 46.0996 20.9707Z" fill="#DADADA"/>
<path d="M37.1293 47.5529C37.1169 46.5665 37.3995 45.5988 37.9411 44.7736C38.4827 43.9484 39.2585 43.3033 40.1694 42.9208C41.0803 42.5383 42.0848 42.4358 43.0544 42.6264C44.024 42.8169 44.9145 43.292 45.6122 43.9907C46.3098 44.6894 46.7828 45.5799 46.9706 46.5485C47.1584 47.517 47.0524 48.5195 46.6663 49.4276C46.2802 50.3357 45.6315 51.1081 44.8032 51.6461C43.9749 52.1841 43.0046 52.4632 42.0165 52.4476C40.724 52.4272 39.4904 51.9045 38.5778 50.9905C37.6652 50.0765 37.1456 48.8433 37.1293 47.5529Z" fill="#B2B2B2"/>
<path d="M8.45315 47.2697C8.45012 46.2912 8.7372 45.3337 9.27825 44.5178C9.81929 43.7019 10.5901 43.064 11.4936 42.6846C12.3971 42.3052 13.3928 42.2012 14.3554 42.3856C15.318 42.5701 16.2044 43.0348 16.9029 43.7212C17.6014 44.4076 18.0809 45.2851 18.2808 46.243C18.4808 47.2009 18.3923 48.1965 18.0266 49.1043C17.6608 50.0121 17.0342 50.7916 16.2255 51.3445C15.4169 51.8975 14.4624 52.1992 13.4823 52.2116C12.1679 52.2116 10.9072 51.6915 9.9763 50.7651C9.04543 49.8388 8.52038 48.5818 8.51621 47.2697" fill="#878787"/>
</svg>
