<?xml version="1.0" encoding="UTF-8"?>
<svg id="Layer_2" xmlns="http://www.w3.org/2000/svg" xmlns:xlink="http://www.w3.org/1999/xlink" version="1.1" viewBox="0 0 257.5 62.2">
  <!-- Generator: Adobe Illustrator 29.7.1, SVG Export Plug-In . SVG Version: 2.1.1 Build 8)  -->
  <defs>
    <style>
      .st0, .st1, .st2, .st3 {
        fill: none;
      }

      .st1 {
        stroke: #4fc2c0;
      }

      .st1, .st2 {
        stroke-width: 4px;
      }

      .st1, .st2, .st3 {
        stroke-miterlimit: 10;
      }

      .st4 {
        isolation: isolate;
      }

      .st5 {
        fill: #4fc2c0;
      }

      .st2 {
        stroke: #2dc3e9;
      }

      .st6 {
        fill: #f9c03f;
      }

      .st7 {
        fill: #2dc3e9;
      }

      .st3 {
        stroke: #f9c03f;
        stroke-width: 10px;
      }

      .st8 {
        clip-path: url(#clippath);
      }
    </style>
    <symbol id="Dynasti" viewBox="0 0 183.9 192.6">
      <g>
        <g>
          <polygon class="st2" points="130.7 100 130.7 54.3 91.9 31.5 53.1 54.3 53.1 100 91.9 122.8 130.7 100"/>
          <polygon class="st2" points="114.4 90.1 114.4 64.2 91.9 51.3 69.5 64.2 69.5 90.1 91.9 103 114.4 90.1"/>
          <circle class="st7" cx="91.9" cy="122.8" r="6.8"/>
          <circle class="st7" cx="53.1" cy="100" r="6.8"/>
          <circle class="st7" cx="130.7" cy="100" r="6.8"/>
          <circle class="st7" cx="130.7" cy="54.3" r="6.8"/>
          <circle class="st7" cx="53.1" cy="54.3" r="6.8"/>
          <circle class="st7" cx="91.9" cy="103" r="6.8"/>
          <circle class="st7" cx="91.9" cy="31.5" r="6.8"/>
          <circle class="st7" cx="91.9" cy="77.2" r="6.8"/>
          <line class="st2" x1="91.9" y1="122.8" x2="91.9" y2="103"/>
          <line class="st0" x1="91.9" y1="77.1" x2="91.9" y2="77.2"/>
          <line class="st2" x1="91.9" y1="31.5" x2="91.9" y2="77.2"/>
        </g>
        <path class="st6" d="M91.9,192.6c-.8,0-1.7,0-2.6-.3-5.5-1.4-7-8.1-4.5-12.7,1.3-2.4,2.6-1.9,2.3-5.3-.6-6.7-10.1-18-15.4-22.1-6.4-5-20-11.8-26.9-4.2-2.1,2.3-.4,2,.7,3.2,5.5,6.5-1.1,15.9-9.3,12.6-4.7-1.9-6.2-8.4-3-12.2,1.6-1.9,4.2-1.3,2.3-4.4-3-4.9-11.4-4.1-15.5-.8-5.2,4.1-5.2,11.1-10.9,14.7-2.7,1.7-5.9,2.6-9.1,1.9l17.2-41.2c12.6-.8,25.2-.5,37.4,3.4,13.6,4.3,25,12.9,37,20.2l.3.2.3-.2c12-7.3,23.5-15.9,37-20.2,12.1-3.9,24.8-4.2,37.4-3.4l17.2,41.2c-3.2.7-6.4-.2-9.1-1.9-5.8-3.6-5.8-10.6-10.9-14.7-4.1-3.3-12.5-4.1-15.5.8-1.9,3.1.7,2.5,2.3,4.4,3.2,3.8,1.7,10.3-2.9,12.2-8.2,3.3-14.8-6.1-9.3-12.6,1.1-1.2,2.8-.8.6-3.2-6.9-7.6-20.5-.8-26.9,4.2-5.2,4.1-14.8,15.4-15.4,22.1-.3,3.4,1,2.9,2.3,5.3,2.5,4.6,1,11.3-4.5,12.7-.9.2-1.8.3-2.6.3"/>
        <path class="st3" d="M160.9,114.8v-51.3c0-11.1-5.9-21.3-15.5-26.8L91.9,5.8l-53.4,30.8c-9.6,5.5-15.5,15.8-15.5,26.8v51.3"/>
        <polygon class="st1" points="130.7 100 130.7 54.3 91.9 31.5 53.1 54.3 53.1 100 91.9 122.8 130.7 100"/>
        <polygon class="st1" points="114.4 90.1 114.4 64.2 91.9 51.3 69.5 64.2 69.5 90.1 91.9 103 114.4 90.1"/>
        <circle class="st5" cx="91.9" cy="122.8" r="6.8"/>
        <circle class="st5" cx="53.1" cy="100" r="6.8"/>
        <circle class="st5" cx="130.7" cy="100" r="6.8"/>
        <circle class="st5" cx="130.7" cy="54.3" r="6.8"/>
        <circle class="st5" cx="53.1" cy="54.3" r="6.8"/>
        <circle class="st5" cx="91.9" cy="103" r="6.8"/>
        <circle class="st5" cx="91.9" cy="31.5" r="6.8"/>
        <circle class="st5" cx="91.9" cy="77.2" r="6.8"/>
        <line class="st1" x1="91.9" y1="122.8" x2="91.9" y2="103"/>
        <line class="st0" x1="91.9" y1="77.1" x2="91.9" y2="77.2"/>
        <line class="st1" x1="91.9" y1="31.5" x2="91.9" y2="77.2"/>
        <path class="st6" d="M91.9,192.6c-.8,0-1.7,0-2.6-.3-5.5-1.4-7-8.1-4.5-12.7,1.3-2.4,2.6-1.9,2.3-5.3-.6-6.7-10.1-18-15.4-22.1-6.4-5-20-11.8-26.9-4.2-2.1,2.3-.4,2,.7,3.2,5.5,6.5-1.1,15.9-9.3,12.6-4.7-1.9-6.2-8.4-3-12.2,1.6-1.9,4.2-1.3,2.3-4.4-3-4.9-11.4-4.1-15.5-.8-5.2,4.1-5.2,11.1-10.9,14.7-2.7,1.7-5.9,2.6-9.1,1.9l17.2-41.2c12.6-.8,25.2-.5,37.4,3.4,13.6,4.3,25,12.9,37,20.2l.3.2.3-.2c12-7.3,23.5-15.9,37-20.2,12.1-3.9,24.8-4.2,37.4-3.4l17.2,41.2c-3.2.7-6.4-.2-9.1-1.9-5.8-3.6-5.8-10.6-10.9-14.7-4.1-3.3-12.5-4.1-15.5.8-1.9,3.1.7,2.5,2.3,4.4,3.2,3.8,1.7,10.3-2.9,12.2-8.2,3.3-14.8-6.1-9.3-12.6,1.1-1.2,2.8-.8.6-3.2-6.9-7.6-20.5-.8-26.9,4.2-5.2,4.1-14.8,15.4-15.4,22.1-.3,3.4,1,2.9,2.3,5.3,2.5,4.6,1,11.3-4.5,12.7-.9.2-1.8.3-2.6.3"/>
        <path class="st3" d="M160.9,114.8v-51.3c0-11.1-5.9-21.3-15.5-26.8L91.9,5.8l-53.4,30.8c-9.6,5.5-15.5,15.8-15.5,26.8v51.3"/>
      </g>
    </symbol>
    <clipPath id="clippath">
      <rect class="st0" y="0" width="58.8" height="61.6"/>
    </clipPath>
  </defs>
  <g class="st8">
    <use width="183.9" height="192.6" transform="translate(0 61.6) scale(.3 -.3)" xlink:href="#Dynasti"/>
  </g>
  <g>
    <g class="st4">
      <g class="st4">
        <path class="st6" d="M63.9,50.5v-2.3l3.5-.6v-26.2l-3.3-.6v-2.3h5.7c1.2,0,2.5,0,3.7-.2,1.2-.1,2.5-.2,3.9-.2,2.8,0,5.1.4,7.1,1.1,2,.7,3.6,1.8,4.9,3.1,1.3,1.3,2.2,2.9,2.8,4.8.6,1.9.9,4,.9,6.3s-.4,5-1.2,7.2c-.8,2.1-1.9,4-3.3,5.5-1.4,1.5-3.1,2.7-5.1,3.5-2,.8-4.2,1.2-6.6,1.1-.5,0-1.1,0-1.6,0-.6,0-1.2,0-1.8-.1-.6,0-1.2,0-1.8-.1s-1.2,0-1.7,0h-6ZM72.3,21v26.9c.8.2,1.5.3,2.4.4.8,0,1.7,0,2.7,0,1.5,0,2.9-.4,4.2-1,1.3-.6,2.4-1.5,3.4-2.6.9-1.1,1.7-2.6,2.2-4.3.5-1.7.8-3.7.8-6,0-9.2-4-13.8-12-13.8s-1.7,0-2.3,0c-.6,0-1.1.1-1.4.2Z"/>
        <path class="st6" d="M100.4,61.2c-.2,0-.4,0-.7,0-.2,0-.5,0-.7,0-.2,0-.4,0-.6,0-.2,0-.3,0-.4-.1v-3.9c0,0,.2,0,.4.1.2,0,.4,0,.6.1.2,0,.5,0,.7,0s.5,0,.7,0c.4,0,.9,0,1.5-.2.5-.1,1.1-.4,1.7-.9s1.2-1.1,1.8-2.1c.6-.9,1.2-2.2,1.8-3.8h-2.6l-7.9-21-2-.6v-2.3h10.6v2.3l-3.4.6,4.3,12.9,1.9,6.2,1.7-6.2,3.7-12.9-2.8-.6v-2.3h8.8v2.3l-2.2.6c-1.1,3.5-2,6.5-2.8,9-.8,2.5-1.5,4.7-2,6.5-.6,1.8-1,3.2-1.3,4.2-.3,1-.6,1.8-.8,2.2-.7,1.7-1.3,3.1-2,4.4-.7,1.2-1.4,2.3-2.1,3.1-.8.8-1.6,1.4-2.6,1.8-.9.4-2,.6-3.3.6Z"/>
        <path class="st6" d="M122.1,50.5v-2.3l2.8-.4v-17.5l-2.9-.9v-2.5l6-.9h.1l1,.8v2.5c.4-.4,1-.8,1.7-1.2.7-.4,1.4-.8,2.2-1.1.8-.3,1.6-.6,2.4-.8.8-.2,1.6-.3,2.3-.3,1.4,0,2.5.2,3.4.6s1.6,1,2.1,1.8c.5.8.9,1.8,1.1,3.1.2,1.3.3,2.8.3,4.5v11.8l3.1.4v2.3h-10.6v-2.3l2.8-.4v-11.8c0-1.1,0-2.1-.1-2.9,0-.8-.3-1.5-.6-2.1-.3-.6-.7-1-1.3-1.3-.6-.3-1.3-.4-2.2-.4s-2.1.2-3.2.6c-1.1.4-2,.9-2.8,1.5v16.5l3,.4v2.3h-10.5Z"/>
        <path class="st6" d="M150.6,44.2c0-1,.2-1.9.6-2.7.4-.8.9-1.5,1.6-2.1s1.4-1.1,2.3-1.5,1.8-.8,2.9-1c1-.3,2.1-.5,3.2-.6,1.1-.1,2.2-.2,3.3-.2v-1.1c0-1,0-1.8-.2-2.5-.1-.7-.4-1.2-.7-1.7-.3-.4-.8-.7-1.4-.9-.6-.2-1.3-.3-2.2-.3s-1.5,0-2.3.2c-.8.1-1.5.3-2.2.5-.7.2-1.3.4-1.9.7-.6.2-1.1.4-1.5.6h0l-.9-2c.3-.3.7-.6,1.4-1,.7-.4,1.5-.8,2.4-1.1.9-.4,1.9-.7,3-.9,1.1-.3,2.1-.4,3.2-.4s2.7.2,3.7.5c1,.3,1.8.8,2.5,1.4.6.7,1.1,1.5,1.4,2.6.3,1.1.4,2.3.4,3.9v13.7h2.6v2c-.3,0-.6.2-1,.2-.4,0-.8.2-1.2.3s-.8.1-1.2.2c-.4,0-.8,0-1.2,0s-.7,0-1,0c-.3,0-.5-.1-.7-.3-.2-.1-.3-.4-.4-.7s-.1-.7-.1-1.2v-.8c-.2.2-.5.4-.9.7-.4.3-.9.7-1.5,1-.6.3-1.3.6-2.1.9-.8.2-1.6.4-2.5.4s-1.9-.1-2.8-.4c-.9-.3-1.6-.7-2.3-1.2-.7-.5-1.2-1.2-1.6-2.1-.4-.9-.6-1.9-.6-3.1ZM159.7,47.8c.3,0,.6,0,1-.1.4,0,.8-.2,1.3-.3.4-.1.9-.3,1.3-.5s.8-.4,1.2-.7v-7.7c-1.7,0-3.1.1-4.2.4-1.1.3-2,.7-2.7,1.2-.7.5-1.1,1-1.4,1.6-.3.6-.4,1.3-.4,1.9s.1,1.4.3,2c.2.5.5,1,.8,1.3.4.3.8.6,1.3.7.5.1,1,.2,1.6.2Z"/>
        <path class="st6" d="M175.6,49.1v-5.5h3l.9,3.1c.1.2.3.4.7.7.3.2.7.4,1.1.6.4.2.9.3,1.4.4.5.1,1.1.2,1.6.2.9,0,1.6,0,2.1-.3.6-.2,1-.4,1.3-.7.3-.3.5-.7.7-1.1s.2-.8.2-1.3-.1-1-.4-1.5c-.2-.4-.6-.9-1.1-1.3-.5-.4-1.2-.8-1.9-1.2-.8-.4-1.7-.8-2.8-1.2-1.1-.4-2.1-.9-2.9-1.4-.8-.5-1.5-1-2.1-1.6-.5-.6-.9-1.3-1.2-2-.3-.7-.4-1.6-.4-2.6s.2-1.8.7-2.6c.4-.8,1-1.4,1.8-2,.8-.6,1.7-1,2.8-1.3,1.1-.3,2.2-.5,3.4-.5s1.7,0,2.4.2c.7.1,1.4.2,2,.4.6.1,1.1.3,1.5.5.4.2.8.3,1.1.4v5.2h-2.8s-.9-2.7-.9-2.7c-.2-.4-.6-.7-1.2-1-.6-.3-1.4-.5-2.3-.5-.7,0-1.4,0-1.9.2-.5.2-.9.4-1.3.6-.3.3-.6.6-.7.9-.2.4-.2.7-.2,1.1,0,.8.2,1.4.5,1.8s.7.9,1.3,1.2c.5.3,1.1.6,1.8.9s1.4.5,2.1.8c1,.4,1.9.9,2.8,1.3.9.5,1.6,1,2.3,1.6s1.2,1.3,1.6,2.1c.4.8.6,1.7.6,2.8s-.2,2-.6,2.9c-.4.9-1,1.6-1.8,2.2-.8.6-1.7,1.1-2.9,1.4-1.1.3-2.4.5-3.8.5s-1.5,0-2.4-.2-1.6-.3-2.3-.5-1.4-.4-2-.6c-.6-.2-1.1-.4-1.5-.6Z"/>
        <path class="st6" d="M199.5,46v-16.4h-3v-2c.4-.1.9-.3,1.3-.4.4-.2.7-.3.9-.4.5-.3.9-.8,1.2-1.6.1-.3.3-.6.4-1,.2-.4.3-.8.5-1.3.2-.4.3-.8.4-1.2s.2-.7.3-.9h2.7v5.8h7v3h-7v12.6c0,1.2,0,2.2,0,2.9s.1,1.2.3,1.6.4.5.7.6c.3,0,.8.1,1.3.1h0c.4,0,.8,0,1.3,0,.4,0,.9-.1,1.3-.2.4,0,.8-.2,1.2-.3.3,0,.6-.2.8-.3h0l.7,2.1c-.3.3-.8.5-1.4.8-.6.3-1.2.5-1.9.7-.7.2-1.4.4-2.2.6-.7.1-1.4.2-2.1.2h0c-.7,0-1.4,0-2-.3s-1.1-.4-1.5-.8c-.4-.4-.7-.9-1-1.5-.2-.6-.3-1.4-.3-2.3Z"/>
      </g>
    </g>
    <g class="st4">
      <g class="st4">
        <path class="st5" d="M218.9,50v-2.4l3.6-.4v-18.3l-3.1-1v-2.6l6.7-.9h.1l1.2.9v21.9l3.6.4v2.4h-12.1ZM224.3,20.2c-.4,0-.8,0-1.2-.2-.4-.2-.7-.4-.9-.6-.2-.3-.4-.6-.6-1-.1-.4-.2-.8-.2-1.2s0-.9.2-1.3c.1-.4.3-.8.6-1.1.3-.3.6-.6,1-.8.4-.2.9-.3,1.4-.3h0c.5,0,.9,0,1.3.3s.7.4.9.7c.2.3.4.6.6,1s.2.7.2,1.1,0,1-.2,1.4c-.1.4-.4.8-.6,1.1-.3.3-.6.6-1.1.7-.4.2-.9.3-1.5.3h0Z"/>
        <path class="st5" d="M234.3,43.4c0-1.1.2-2,.6-2.8.4-.8.9-1.6,1.6-2.2.7-.6,1.5-1.2,2.4-1.6.9-.4,1.9-.8,3-1.1,1.1-.3,2.2-.5,3.4-.6,1.2-.1,2.3-.2,3.5-.2v-1.2c0-1,0-1.9-.2-2.6-.1-.7-.4-1.3-.8-1.7-.4-.4-.8-.8-1.4-1-.6-.2-1.4-.3-2.3-.3s-1.6,0-2.4.2c-.8.1-1.5.3-2.3.5-.7.2-1.4.4-2,.7-.6.2-1.1.5-1.5.7h0l-1-2.1c.3-.3.8-.6,1.5-1,.7-.4,1.5-.8,2.5-1.2,1-.4,2-.7,3.1-1s2.2-.4,3.3-.4,2.8.2,3.9.5c1.1.3,1.9.8,2.6,1.5.7.7,1.1,1.6,1.4,2.7.3,1.1.4,2.5.4,4.1v14.3h2.7v2.1c-.3,0-.6.2-1,.3-.4,0-.8.2-1.2.3-.4,0-.9.1-1.3.2-.4,0-.9,0-1.3,0s-.8,0-1.1,0c-.3,0-.5-.1-.7-.3-.2-.2-.3-.4-.4-.7,0-.3-.1-.7-.1-1.3v-.8c-.2.2-.5.4-.9.8-.4.3-1,.7-1.6,1-.6.3-1.3.6-2.2.9-.8.3-1.7.4-2.6.4s-2-.1-2.9-.4c-.9-.3-1.7-.7-2.4-1.3-.7-.6-1.3-1.3-1.7-2.2-.4-.9-.6-2-.6-3.2ZM243.7,47.1c.3,0,.7,0,1.1-.1.4,0,.9-.2,1.3-.3.5-.1.9-.3,1.4-.5.4-.2.9-.5,1.2-.7v-8.1c-1.8,0-3.2.2-4.4.5s-2.1.7-2.8,1.2c-.7.5-1.2,1.1-1.5,1.7s-.4,1.3-.4,2,.1,1.5.3,2,.5,1,.9,1.4c.4.4.8.6,1.3.8.5.2,1.1.2,1.6.2Z"/>
      </g>
    </g>
  </g>
</svg>