<?xml version="1.0" encoding="UTF-8"?>
<svg id="Layer_2" data-name="Layer 2" xmlns="http://www.w3.org/2000/svg" viewBox="0 0 183.89 192.56">
  <defs>
    <style>
      .cls-1, .cls-2, .cls-3, .cls-4 {
        fill: none;
      }

      .cls-5, .cls-2, .cls-6, .cls-3, .cls-4 {
        stroke-miterlimit: 10;
      }

      .cls-5, .cls-2, .cls-6, .cls-4 {
        stroke-width: 4px;
      }

      .cls-5, .cls-6, .cls-7 {
        fill: #2dc3e9;
      }

      .cls-5, .cls-4 {
        stroke: #2dc3e9;
      }

      .cls-2, .cls-6 {
        stroke: #4fc2c0;
      }

      .cls-8 {
        fill: #4fc2c0;
      }

      .cls-3 {
        stroke: #f9c03f;
        stroke-width: 10px;
      }

      .cls-9 {
        fill: #f9c03f;
      }
    </style>
  </defs>
  <g id="Layer_1-2" data-name="Layer 1">
    <g>
      <g>
        <polygon class="cls-4" points="130.74 92.59 130.74 138.22 91.95 161.04 53.15 138.22 53.15 92.59 91.95 69.77 130.74 92.59"/>
        <polygon class="cls-4" points="114.36 102.47 114.36 128.34 91.95 141.28 69.54 128.34 69.54 102.47 91.95 89.53 114.36 102.47"/>
        <circle class="cls-7" cx="91.95" cy="69.77" r="6.75"/>
        <circle class="cls-7" cx="53.15" cy="92.59" r="6.75"/>
        <circle class="cls-7" cx="130.74" cy="92.59" r="6.75"/>
        <circle class="cls-7" cx="130.74" cy="138.22" r="6.75"/>
        <circle class="cls-7" cx="53.15" cy="138.22" r="6.75"/>
        <circle class="cls-7" cx="91.95" cy="89.53" r="6.75"/>
        <circle class="cls-7" cx="91.95" cy="161.04" r="6.75"/>
        <circle class="cls-7" cx="91.95" cy="115.4" r="6.75"/>
        <line class="cls-4" x1="91.95" y1="69.77" x2="91.95" y2="89.53"/>
        <line class="cls-1" x1="91.95" y1="115.42" x2="91.95" y2="115.4"/>
        <line class="cls-5" x1="91.95" y1="161.04" x2="91.95" y2="115.4"/>
      </g>
      <path class="cls-9" d="M91.95,0c-.84-.02-1.72.08-2.64.32-5.46,1.42-6.98,8.15-4.47,12.73,1.29,2.35,2.58,1.91,2.29,5.29-.57,6.71-10.14,17.97-15.37,22.08-6.44,5.05-20.04,11.8-26.94,4.24-2.13-2.33-.4-1.95.65-3.17,5.54-6.5-1.06-15.9-9.26-12.62-4.69,1.87-6.17,8.36-2.95,12.21,1.62,1.94,4.21,1.28,2.3,4.39-3.02,4.91-11.42,4.12-15.54.85-5.18-4.11-5.18-11.11-10.94-14.73-2.68-1.68-5.9-2.64-9.07-1.9l17.23,41.19c12.56.84,25.25.49,37.4-3.4,13.55-4.34,25-12.93,37-20.25l.32-.21.32.21c12,7.31,23.45,15.9,37,20.25,12.14,3.89,24.84,4.24,37.4,3.4l17.23-41.19c-3.17-.74-6.39.22-9.07,1.9-5.77,3.62-5.76,10.61-10.94,14.73-4.12,3.27-12.53,4.06-15.54-.85-1.91-3.12.68-2.45,2.3-4.39,3.22-3.85,1.74-10.34-2.95-12.21-8.19-3.27-14.79,6.12-9.26,12.62,1.05,1.23,2.77.84.65,3.17-6.9,7.56-20.5.81-26.94-4.24-5.23-4.11-14.8-15.37-15.37-22.08-.29-3.38,1-2.94,2.29-5.29,2.51-4.59.99-11.31-4.47-12.73-.92-.24-1.8-.34-2.64-.32"/>
      <path class="cls-3" d="M160.86,77.76v51.35c0,11.07-5.91,21.3-15.5,26.84l-53.42,30.84-53.42-30.84c-9.59-5.54-15.5-15.77-15.5-26.84v-51.35"/>
      <polygon class="cls-2" points="130.74 92.59 130.74 138.22 91.95 161.04 53.15 138.22 53.15 92.59 91.95 69.77 130.74 92.59"/>
      <polygon class="cls-2" points="114.36 102.47 114.36 128.34 91.95 141.28 69.54 128.34 69.54 102.47 91.95 89.53 114.36 102.47"/>
      <circle class="cls-8" cx="91.95" cy="69.77" r="6.75"/>
      <circle class="cls-8" cx="53.15" cy="92.59" r="6.75"/>
      <circle class="cls-8" cx="130.74" cy="92.59" r="6.75"/>
      <circle class="cls-8" cx="130.74" cy="138.22" r="6.75"/>
      <circle class="cls-8" cx="53.15" cy="138.22" r="6.75"/>
      <circle class="cls-8" cx="91.95" cy="89.53" r="6.75"/>
      <circle class="cls-8" cx="91.95" cy="161.04" r="6.75"/>
      <circle class="cls-8" cx="91.95" cy="115.4" r="6.75"/>
      <line class="cls-2" x1="91.95" y1="69.77" x2="91.95" y2="89.53"/>
      <line class="cls-1" x1="91.95" y1="115.42" x2="91.95" y2="115.4"/>
      <line class="cls-6" x1="91.95" y1="161.04" x2="91.95" y2="115.4"/>
      <path class="cls-9" d="M91.95,0c-.84-.02-1.72.08-2.64.32-5.46,1.42-6.98,8.15-4.47,12.73,1.29,2.35,2.58,1.91,2.29,5.29-.57,6.71-10.14,17.97-15.37,22.08-6.44,5.05-20.04,11.8-26.94,4.24-2.13-2.33-.4-1.95.65-3.17,5.54-6.5-1.06-15.9-9.26-12.62-4.69,1.87-6.17,8.36-2.95,12.21,1.62,1.94,4.21,1.28,2.3,4.39-3.02,4.91-11.42,4.12-15.54.85-5.18-4.11-5.18-11.11-10.94-14.73-2.68-1.68-5.9-2.64-9.07-1.9l17.23,41.19c12.56.84,25.25.49,37.4-3.4,13.55-4.34,25-12.93,37-20.25l.32-.21.32.21c12,7.31,23.45,15.9,37,20.25,12.14,3.89,24.84,4.24,37.4,3.4l17.23-41.19c-3.17-.74-6.39.22-9.07,1.9-5.77,3.62-5.76,10.61-10.94,14.73-4.12,3.27-12.53,4.06-15.54-.85-1.91-3.12.68-2.45,2.3-4.39,3.22-3.85,1.74-10.34-2.95-12.21-8.19-3.27-14.79,6.12-9.26,12.62,1.05,1.23,2.77.84.65,3.17-6.9,7.56-20.5.81-26.94-4.24-5.23-4.11-14.8-15.37-15.37-22.08-.29-3.38,1-2.94,2.29-5.29,2.51-4.59.99-11.31-4.47-12.73-.92-.24-1.8-.34-2.64-.32"/>
      <path class="cls-3" d="M160.86,77.76v51.35c0,11.07-5.91,21.3-15.5,26.84l-53.42,30.84-53.42-30.84c-9.59-5.54-15.5-15.77-15.5-26.84v-51.35"/>
    </g>
  </g>
</svg>